<?xml version="1.0" encoding="UTF-8" standalone="no"?>
<!-- Created with Inkscape (http://www.inkscape.org/) -->

<svg
   version="1.1"
   id="svg1"
   width="500"
   height="200"
   viewBox="0 0 500 200"
   xmlns="http://www.w3.org/2000/svg"
   xmlns:svg="http://www.w3.org/2000/svg">
  <defs
     id="defs1" />
  <g
     id="group-R5-4"
     transform="translate(-92.000079,-223.74469)">
    <path
       id="path2-7"
       d="m 1478.64,2730.21 0.02,-46.18 -86.25,148.74 44.57,-27.01 c 22.74,-14.82 41.66,-48.79 41.66,-75.55 z m -43.67,-324.16 -40.59,-24.36 84.15,147.37 -0.08,-46.35 c -0.06,-27.43 -19.96,-62.52 -43.48,-76.66 z m -286.85,-120.68 -55.28,33.52 68.83,0.08 128.4,0.08 -57.05,-34.26 c -23.36,-13.5 -61.96,-13.33 -84.9,0.58 z M 904.133,2483.6 v 45.21 l 39.414,-67.83 c 0.152,-0.26 0.371,-0.43 0.523,-0.67 l 45.571,-78.85 -43.848,26.59 c -22.734,14.8 -41.66,48.79 -41.66,75.55 z m 43.633,324.15 42.422,25.48 -85.977,-149.99 0.074,47.86 c 0.063,27.43 19.961,62.52 43.481,76.65 z m 286.834,120.7 57.07,-34.6 -57.25,-0.08 -143.55,-0.09 58.91,35.37 c 23.35,13.49 61.89,13.31 84.82,-0.6 z m 182.81,-188.63 c 0.12,-0.19 0.1,-0.43 0.22,-0.62 l 16.09,-27.68 -88.67,53.73 c -0.22,0.14 -0.43,0.31 -0.67,0.44 l -17.09,10.33 -79.86,48.39 c -11.8,7.15 -26.11,11.6 -41.05,13.37 l 51.56,30.97 c 0.02,0.01 0.02,0.02 0.04,0.03 l 34.78,0.02 c 27.25,-0.26 61.51,-20.05 75.1,-43.52 z m 2.85,-262.36 c -0.31,-0.41 -0.72,-0.68 -0.99,-1.13 l -19.4,-33.64 -0.02,83.57 c 0.02,0.86 0.14,1.71 0,2.57 l -0.06,138.7 c 0,13.15 -3.22,27.18 -8.78,40.63 l 68.43,-41.46 c 0.14,-0.08 0.3,-0.11 0.43,-0.19 l 9.1,-15.68 c 5.14,-8.83 8.36,-19.95 9.71,-31.64 v -11.71 c 0,-0.01 0,-0.02 0,-0.03 l -0.02,-13.1 c -1.31,-11.43 -4.39,-22.3 -9.33,-30.97 z m -227.22,-133.47 c -0.04,0 -0.06,0.02 -0.1,0.02 h -0.02 l -21.5,-0.03 74.51,44.73 c 0.31,0.18 0.66,0.3 0.97,0.49 l 49.42,29.71 c 0.06,0.04 0.1,0.1 0.15,0.14 l 47.62,28.59 c 11.47,6.87 22.01,17.08 30.76,29.02 l 0.04,-76.38 c 0,-0.24 0.12,-0.45 0.14,-0.69 l -6.82,-11.81 c -13.65,-23.68 -48.3,-43.71 -75.64,-43.73 z m -245.079,159.54 83.869,-51.05 c 2.13,-1.56 4.29,-3.05 6.48,-4.37 l 49.36,-29.84 c 0.41,-0.24 0.86,-0.36 1.29,-0.56 l 46.34,-28.2 c 11.76,-7.17 26.06,-11.65 40.98,-13.45 l -52.74,-31.65 c -0.19,-0.11 -0.31,-0.33 -0.5,-0.45 l -32.93,-0.02 c -27.25,0.24 -61.51,20.05 -75.08,43.56 z m 15.309,232.5 c 0.097,0.12 0.214,0.22 0.293,0.36 l 19.375,33.61 v -137.77 l -0.055,-25.66 c 0,-0.09 0.055,-0.15 0.055,-0.24 v -60.05 c 0,-12.93 3.125,-26.71 8.515,-39.97 l -68.965,41.97 c -0.152,0.1 -0.332,0.1 -0.508,0.18 l -9.917,17.17 c -4.028,8.18 -6.782,17.76 -7.93,27.93 v 24.48 c 1.289,11.53 4.414,22.5 9.414,31.24 z m 269.92,-325.81 c -23.34,-13.52 -61.95,-13.33 -84.9,0.64 l -100.68,61.27 c -21.82,15.47 -39.67,48.16 -39.67,74.15 v 85.91 l 0.06,35.93 c 0.02,9.35 2.48,19.58 6.48,29.59 5.22,7.45 12.56,15.49 21.1,18.68 25.76,9.58 70.62,-40.16 103.36,-76.53 14.49,-16.08 28.16,-31.28 40.05,-41.69 6.59,-5.75 14.61,-13.41 23.93,-22.3 42.17,-40.23 97.87,-93.38 143.12,-93.38 0.45,0 0.9,0.11 1.35,0.13 -5.04,-5.46 -10.49,-10.14 -16.17,-13.56 z m 1.29,392.81 47.35,-28.69 c 0.09,-0.06 0.15,-0.17 0.25,-0.23 l 34,-20.54 15.69,-9.49 c 23.34,-14.29 43.02,-49.24 43.02,-76.55 l 0.02,-60.21 c 0,-0.02 0,-0.03 0,-0.04 l -0.11,-61.59 c 0,-6.82 -1.25,-14.12 -3.48,-21.44 -0.74,-1.3 -1.43,-2.54 -2.03,-3.65 -3.32,-6.13 -4,-7.41 -13.28,-11.26 -32.74,-13.61 -99.73,50.29 -135.72,84.62 -9.54,9.09 -17.76,16.93 -24.73,23.03 -10.78,9.43 -23.97,24.08 -37.95,39.6 -34.8,38.67 -73.54,81.53 -109.63,85.57 1.21,0.85 2.38,1.86 3.61,2.61 l 47.74,28.67 c 0.02,0.01 0.04,0.01 0.06,0.02 l 16.64,10 33.04,19.85 c 23.31,13.85 62.37,13.76 85.51,-0.28 z m -44.8,65.71 c 0.08,0 0.11,-0.04 0.19,-0.04 0,0 0,0 0.02,0 l 19.48,0.03 -73.15,-43.93 c -0.14,-0.07 -0.29,-0.12 -0.41,-0.2 l -44.96,-27.04 -52.23,-31.37 c -11.42,-6.85 -21.93,-17.02 -30.68,-28.91 v 76.09 l 6.66,11.57 c 13.65,23.69 48.3,43.72 75.64,43.74 z m 419.88,-138.35 -157.71,95.6 c -1.2,0.81 -2.39,1.65 -3.62,2.39 l -66.99,40.47 46.68,0.03 c 6.91,0 12.5,5.6 12.5,12.51 0,6.89 -5.61,12.49 -12.5,12.49 h -0.02 l -87.95,-0.05 -92.38,56 c -11.76,7.12 -26.06,11.58 -40.96,13.36 l 103.75,62.3 c 5.92,3.55 7.83,11.23 4.28,17.15 -3.54,5.91 -11.25,7.82 -17.15,4.27 l -160.45,-96.34 c -0.35,-0.21 -0.76,-0.34 -1.11,-0.55 l -76.29,-45.9 16.66,29.04 c 3.44,6 1.37,13.64 -4.63,17.06 -6.02,3.47 -13.63,1.37 -17.05,-4.61 l -38.95,-67.91 -80.775,-48.52 c -11.465,-6.89 -21.997,-17.09 -30.762,-29.02 v 122.86 c 0,6.9 -5.586,12.5 -12.5,12.5 -6.899,0 -12.5,-5.6 -12.5,-12.5 v -278.65 l -0.039,-21.69 -39.922,69.08 c -3.457,5.97 -11.098,8.03 -17.094,4.56 -5.973,-3.46 -8.008,-11.1 -4.551,-17.08 l 61.606,-106.59 v -89.05 c 0,-13.07 3.203,-27.02 8.687,-40.4 l -101.636,61.62 c -5.942,3.57 -13.594,1.7 -17.168,-4.2 -3.578,-5.91 -1.703,-13.6 4.199,-17.18 l 157.769,-95.67 c 1.196,-0.79 2.344,-1.61 3.536,-2.33 l 68.83,-41.55 -38.963,-0.03 c -6.914,0 -12.5,-5.61 -12.5,-12.51 0,-6.9 5.601,-12.49 12.5,-12.49 h 0.015 l 80.178,0.05 90.57,-54.92 c 11.75,-7.13 26.03,-11.6 40.95,-13.38 l -103.71,-62.27 c -5.92,-3.55 -7.83,-11.23 -4.27,-17.15 2.34,-3.9 6.48,-6.06 10.72,-6.06 2.19,0 4.41,0.57 6.42,1.78 l 160.47,96.36 c 0.33,0.2 0.73,0.32 1.06,0.52 l 78.43,47.18 -21.25,-37.2 c -3.41,-6 -1.32,-13.63 4.67,-17.06 1.96,-1.11 4.08,-1.64 6.19,-1.64 4.34,0 8.56,2.26 10.86,6.3 l 43.38,75.95 78.77,47.31 c 11.53,6.91 22.11,17.19 30.9,29.21 l 0.04,-123.05 c 0,-6.9 5.59,-12.5 12.5,-12.5 6.89,0 12.5,5.6 12.5,12.5 l -0.1,300.26 33.24,-57.31 c 2.31,-4 6.51,-6.23 10.82,-6.23 2.13,0 4.28,0.55 6.25,1.69 5.98,3.46 8.01,11.11 4.55,17.08 l -54.86,94.62 -0.04,89.31 c 0,13.07 -3.2,27.02 -8.69,40.41 L 1596.58,2709 c 2.03,-1.22 4.28,-1.8 6.49,-1.8 4.22,0 8.35,2.14 10.71,6.01 3.57,5.91 1.68,13.6 -4.22,17.18"
       style="display:inline;fill:#a47a4e;fill-opacity:1;fill-rule:nonzero;stroke:none"
       transform="matrix(0.13333333,0,0,-0.13333333,0,641.33333)" />
    <path
       id="path3-8"
       d="m 2411.92,2927.7 h -56.4 c -12.63,0 -20.8,-8.17 -20.8,-20.81 v -385.17 c 0,-27.95 10.91,-79.28 6.38,-83.16 -5.02,-4.29 -21.41,28.45 -30.41,41.19 l -262.67,346.63 c -19.83,27.28 -40.66,61.24 -54.34,88.58 -4.15,8.33 -11.4,12.74 -20.94,12.74 h -72 c -12.64,0 -20.8,-8.17 -20.8,-20.81 v -599.97 c 0,-12.63 8.16,-20.8 20.8,-20.8 h 56.39 c 12.64,0 20.8,8.17 20.8,20.8 v 386.39 c 0,32.64 -10.32,84.18 -4.49,85.43 3.36,0.72 16.23,-27.7 26.12,-43.46 l 262.68,-347.84 c 16.99,-23.37 40.53,-58.63 55.2,-86.64 3.9,-9.74 11.06,-14.68 21.28,-14.68 h 73.2 c 12.64,0 20.8,8.17 20.8,20.8 v 599.97 c 0,12.64 -8.16,20.81 -20.8,20.81"
       style="fill:#026b54;fill-opacity:1;fill-rule:nonzero;stroke:none"
       transform="matrix(0.13333333,0,0,-0.13333333,0,641.33333)" />
    <path
       id="path4-4"
       d="m 3059.21,2376.92 h -376.38 v 188.79 h 301.99 c 12.63,0 20.79,8.17 20.79,20.8 v 49.2 c 0,12.63 -8.16,20.79 -20.79,20.79 h -301.99 v 180.4 h 355.98 c 11.6,0 19.67,6.46 21.75,17.31 l 14.13,48.33 c 2.18,6.5 1.49,12.71 -1.95,17.48 -2.06,2.87 -7.03,7.68 -17.13,7.68 h -449.98 c -12.64,0 -20.8,-8.17 -20.8,-20.81 v -599.97 c 0,-12.63 8.16,-20.8 20.8,-20.8 h 453.58 c 12.64,0 20.8,8.17 20.8,20.8 v 49.2 c 0,12.64 -8.16,20.8 -20.8,20.8"
       style="fill:#026b54;fill-opacity:1;fill-rule:nonzero;stroke:none"
       transform="matrix(0.13333333,0,0,-0.13333333,0,641.33333)" />
    <path
       id="path5-5"
       d="m 3549.78,2636.98 -160.82,42 c -58.72,15.23 -84.9,41.11 -84.9,83.92 0,52.31 55.48,84.8 144.79,84.8 49.59,0 94.23,-5.91 132.97,-17.65 l 53.46,-14.55 c 11.16,-2.29 20.34,2.99 24.72,14.06 l 14.32,46.57 c 4.18,12.51 -1,22.88 -13.85,27.16 l -52.84,15.62 c -48.34,13.98 -101.05,20.79 -161.18,20.79 -150.53,0 -240.39,-65.65 -240.39,-175.6 0,-90.77 48.53,-145.32 152.62,-171.65 l 161.94,-43.18 c 62.12,-16.95 88.62,-43.13 88.62,-87.55 0,-59.99 -57.58,-94.4 -157.99,-94.4 -70.33,0 -131.84,8.52 -177.93,24.65 l -34.36,11.84 c -10.9,4.36 -21.77,-0.53 -26.24,-11.7 l -18.15,-47.24 c -4.15,-12.5 1.02,-22.86 13.42,-27 l 34.68,-11.95 c 60.25,-21.7 126.52,-31.8 208.58,-31.8 160.3,0 255.99,70.13 255.99,187.6 0,89.92 -51.49,147.24 -157.46,175.26"
       style="fill:#026b54;fill-opacity:1;fill-rule:nonzero;stroke:none"
       transform="matrix(0.13333333,0,0,-0.13333333,0,641.33333)" />
    <path
       id="path6-0"
       d="m 4342,2927.7 h -524.38 c -12.63,0 -20.8,-8.17 -20.8,-20.81 v -49.19 c 0,-12.63 8.17,-20.8 20.8,-20.8 h 213.19 v -529.98 c 0,-12.63 8.16,-20.8 20.8,-20.8 h 56.4 c 12.63,0 20.79,8.17 20.79,20.8 V 2836.9 H 4342 c 12.63,0 20.8,8.17 20.8,20.8 v 49.19 c 0,12.64 -8.17,20.81 -20.8,20.81"
       style="fill:#026b54;fill-opacity:1;fill-rule:nonzero;stroke:none"
       transform="matrix(0.13333333,0,0,-0.13333333,0,641.33333)" />
    <path
       id="path7"
       d="m 909.504,1812.05 c -11.566,-4.01 -25.965,-5.9 -39.422,-5.9 -39.656,0 -54.523,16.05 -54.523,60.43 0,44.38 14.867,60.2 54.757,60.2 10.153,0 25.735,-1.18 37.063,-5.43 l -2.594,-12.99 c -10.39,0.95 -23.137,1.42 -31.164,1.42 -27.383,0 -36.824,-9.68 -36.824,-43.2 0,-33.75 9.441,-43.43 36.824,-43.43 6.848,0 21.953,0.47 33.758,2.36 l 2.125,-13.46"
       style="fill:#a47a4e;fill-opacity:1;fill-rule:nonzero;stroke:none"
       transform="matrix(0.13333333,0,0,-0.13333333,0,641.33333)" />
    <path
       id="path8"
       d="m 956.57,1866.35 c 0,-33.52 8.024,-43.44 33.047,-43.44 25.023,0 33.283,9.92 33.283,43.44 0,33.51 -8.26,43.43 -33.283,43.43 -25.023,0 -33.047,-9.92 -33.047,-43.43 z m 87.1,0 c 0,-44.15 -14.4,-60.43 -54.053,-60.43 -39.422,0 -54.054,16.28 -54.054,60.43 0,43.9 14.632,60.43 54.054,60.43 39.653,0 54.053,-16.53 54.053,-60.43"
       style="fill:#a47a4e;fill-opacity:1;fill-rule:nonzero;stroke:none"
       transform="matrix(0.13333333,0,0,-0.13333333,0,641.33333)" />
    <path
       id="path9"
       d="m 1216.21,1814.65 c -0.95,-3.54 -4.02,-5.67 -7.79,-5.67 h -18.18 c -3.78,0 -7.08,2.6 -7.79,6.38 l -18.89,78.13 c -1.41,5.9 -2.35,11.8 -3.77,18.18 h -2.83 l -4.02,-18.18 -18.64,-78.13 c -0.95,-3.78 -4.02,-6.38 -8.03,-6.38 h -17.94 c -3.78,0 -6.85,2.13 -7.79,5.67 l -33.52,109.29 h 20.77 l 23.85,-84.74 c 1.65,-5.66 2.83,-11.57 3.77,-17.23 h 3.07 l 4.25,17.23 19.12,78.37 c 0.71,3.78 3.54,6.37 7.55,6.37 h 18.18 c 3.78,0 6.61,-2.59 7.55,-6.61 l 18.89,-78.13 c 1.18,-5.66 2.83,-11.33 4.01,-17.23 h 3.07 c 1.41,5.9 2.12,11.33 4.01,17.23 l 23.84,84.74 h 20.78 l -33.52,-109.29"
       style="fill:#a47a4e;fill-opacity:1;fill-rule:nonzero;stroke:none"
       transform="matrix(0.13333333,0,0,-0.13333333,0,641.33333)" />
    <path
       id="path10"
       d="m 1294.21,1866.35 c 0,-33.52 8.02,-43.44 33.05,-43.44 25.02,0 33.28,9.92 33.28,43.44 0,33.51 -8.26,43.43 -33.28,43.43 -25.03,0 -33.05,-9.92 -33.05,-43.43 z m 87.1,0 c 0,-44.15 -14.4,-60.43 -54.05,-60.43 -39.43,0 -54.06,16.28 -54.06,60.43 0,43.9 14.63,60.43 54.06,60.43 39.65,0 54.05,-16.53 54.05,-60.43"
       style="fill:#a47a4e;fill-opacity:1;fill-rule:nonzero;stroke:none"
       transform="matrix(0.13333333,0,0,-0.13333333,0,641.33333)" />
    <path
       id="path11"
       d="m 1487.47,1907.89 h -6.61 c -12.75,0 -24.79,-5.43 -42.96,-14.63 v -84.28 h -20.07 v 114.96 h 15.58 l 2.13,-18.17 c 16.75,13.21 33.51,21.01 49.09,21.01 h 5.2 l -2.36,-18.89"
       style="fill:#a47a4e;fill-opacity:1;fill-rule:nonzero;stroke:none"
       transform="matrix(0.13333333,0,0,-0.13333333,0,641.33333)" />
    <path
       id="path12"
       d="m 1539.08,1866.58 c 0.71,-6.37 1.18,-12.51 1.18,-18.41 v -39.19 h -20.06 v 165.24 h 20.3 v -73.41 c 0,-7.08 -0.24,-13.22 -1.18,-19.59 h 15.11 l 36.35,42.72 h 23.37 l -36.12,-42.25 c -2.12,-2.83 -5.9,-6.37 -8.03,-7.79 v -0.47 c 2.13,-1.66 5.91,-5.67 8.03,-9.21 l 39.89,-55.24 h -23.36 l -39.9,57.6 h -15.58"
       style="fill:#a47a4e;fill-opacity:1;fill-rule:nonzero;stroke:none"
       transform="matrix(0.13333333,0,0,-0.13333333,0,641.33333)" />
    <path
       id="path13"
       d="m 1648.77,1808.98 v 114.96 h 19.83 v -114.96 z m 14.64,163.83 c 4.25,0 6.14,-2.37 6.14,-6.14 v -13.46 c 0,-4.25 -1.89,-6.13 -6.14,-6.13 h -9.45 c -4,0 -6.13,1.88 -6.13,6.13 v 13.46 c 0,3.77 2.13,6.14 6.13,6.14 h 9.45"
       style="fill:#a47a4e;fill-opacity:1;fill-rule:nonzero;stroke:none"
       transform="matrix(0.13333333,0,0,-0.13333333,0,641.33333)" />
    <path
       id="path14"
       d="m 1728.2,1905.77 c 17.47,13.21 34.46,21.01 51.45,21.01 20.31,0 31.17,-10.86 31.17,-31.64 v -86.16 h -20.07 v 80.5 c 0,15.34 -4.72,20.3 -16.53,20.3 -13.69,0 -25.96,-6.85 -44.37,-18.18 v -82.62 h -20.07 v 114.96 h 17 l 1.42,-18.17"
       style="fill:#a47a4e;fill-opacity:1;fill-rule:nonzero;stroke:none"
       transform="matrix(0.13333333,0,0,-0.13333333,0,641.33333)" />
    <path
       id="path15"
       d="m 1927.64,1890.19 c 0,15.34 -7.56,21.24 -30.69,21.24 -22.89,0 -30.69,-5.9 -30.69,-21.24 0,-15.11 7.8,-21.25 30.69,-21.25 23.13,0 30.69,6.14 30.69,21.25 z m -53.11,-70.35 c -8.27,-6.37 -12.04,-12.04 -12.04,-21.95 0,-16.29 7.55,-19.59 35.64,-19.59 27.86,0 35.41,3.78 35.41,19.59 0,11.57 -3.54,13.93 -19.82,16.52 z m 67.04,91.59 c 3.3,-5.43 4.71,-12.51 4.71,-21.24 0,-25.26 -12.51,-36.59 -49.33,-36.59 -9.44,0 -17.46,0.94 -23.84,2.36 -5.19,-7.32 -4.48,-17.94 8.03,-19.83 l 42.96,-6.84 c 21.72,-3.31 29.03,-13.23 29.03,-32.35 0,-26.91 -13.69,-35.64 -54.77,-35.64 -41.54,0 -55.46,8.73 -55.46,34.94 0,13.93 5.43,20.77 18.65,27.85 -12.28,8.74 -9.68,27.86 0.94,35.88 -10.62,5.66 -14.63,15.58 -14.63,29.98 0,25.97 12.27,36.83 49.33,36.83 11.1,0 19.83,-0.95 26.67,-2.84 h 35.88 l -1.18,-11.09 -16.99,-1.42"
       style="fill:#a47a4e;fill-opacity:1;fill-rule:nonzero;stroke:none"
       transform="matrix(0.13333333,0,0,-0.13333333,0,641.33333)" />
    <path
       id="path16"
       d="m 2080.88,1928.92 16.29,-18.65 c 4.89,4.25 9.21,8.73 12.99,13.46 3.78,4.72 5.67,9.83 5.67,15.34 0,11.65 -6.06,17.47 -18.18,17.47 -3,0 -5.59,-0.47 -7.79,-1.41 -2.21,-0.95 -3.94,-2.17 -5.2,-3.66 -1.26,-1.5 -2.2,-3.07 -2.83,-4.72 -0.63,-1.66 -0.95,-3.19 -0.95,-4.61 z m 11.34,-105.77 c 4.72,0 8.97,0.63 12.75,1.89 3.78,1.26 7.27,2.95 10.5,5.08 3.23,2.12 6.34,4.64 9.33,7.55 2.99,2.91 5.98,5.94 8.97,9.09 l -38.48,42.97 c -3.62,-3.47 -7.37,-6.69 -11.21,-9.68 -3.87,-2.99 -7.41,-6.06 -10.63,-9.21 -3.23,-3.15 -5.91,-6.49 -8.03,-10.03 -2.12,-3.54 -3.19,-7.68 -3.19,-12.4 0,-3.46 0.55,-6.73 1.65,-9.8 1.11,-3.06 2.84,-5.74 5.2,-8.02 2.36,-2.28 5.43,-4.1 9.21,-5.43 3.78,-1.34 8.41,-2.01 13.93,-2.01 z m 88.54,49.35 -23.38,-25.27 28.09,-29.04 -12.97,-12.28 -26.68,28.1 c -6.62,-8.18 -14.14,-14.8 -22.55,-19.83 -8.43,-5.04 -18.46,-7.56 -30.11,-7.56 -15.26,0 -27.34,3.35 -36.24,10.04 -8.9,6.68 -13.34,17.03 -13.34,31.05 0,5.98 1.26,11.41 3.78,16.28 2.52,4.88 5.7,9.45 9.56,13.7 3.86,4.25 8.18,8.26 12.99,12.04 4.79,3.78 9.4,7.63 13.81,11.57 l -19.36,21.72 v 20.77 c 0,4.26 0.86,8.11 2.6,11.58 1.73,3.45 4.05,6.45 6.96,8.97 2.91,2.51 6.38,4.44 10.39,5.78 4.02,1.34 8.3,2.01 12.86,2.01 10.86,0 19.49,-2.8 25.86,-8.38 6.37,-5.59 9.56,-13.58 9.56,-23.97 0,-8.5 -2.28,-15.93 -6.84,-22.31 -4.57,-6.37 -10.16,-12.24 -16.77,-17.59 l 36.59,-40.61 22.2,24.79 12.99,-11.56"
       style="fill:#a47a4e;fill-opacity:1;fill-rule:nonzero;stroke:none"
       transform="matrix(0.13333333,0,0,-0.13333333,0,641.33333)" />
    <path
       id="path17"
       d="m 2298.78,1830.7 c 14.4,-4.25 24.55,-7.08 36.83,-7.08 20.06,0 27.85,8.5 27.85,42.25 0,32.58 -7.31,43.44 -25.49,43.44 -12.52,0 -23.37,-5.9 -39.19,-17.71 z m -1.88,74.83 c 12.51,13.22 31.15,21.25 47.68,21.25 28.09,0 39.42,-21.01 39.42,-60.91 0,-44.38 -13.93,-59.72 -43.44,-59.72 -14.63,0 -29.03,3.78 -42.48,11.8 0.7,-8.02 0.7,-15.1 0.7,-23.13 v -33.28 h -20.06 v 162.4 h 16.52 l 1.66,-18.41"
       style="fill:#a47a4e;fill-opacity:1;fill-rule:nonzero;stroke:none"
       transform="matrix(0.13333333,0,0,-0.13333333,0,641.33333)" />
    <path
       id="path18"
       d="m 2490.55,1907.89 h -6.61 c -12.74,0 -24.78,-5.43 -42.96,-14.63 v -84.28 h -20.07 v 114.96 h 15.59 l 2.12,-18.17 c 16.77,13.21 33.52,21.01 49.1,21.01 h 5.2 l -2.37,-18.89"
       style="fill:#a47a4e;fill-opacity:1;fill-rule:nonzero;stroke:none"
       transform="matrix(0.13333333,0,0,-0.13333333,0,641.33333)" />
    <path
       id="path19"
       d="m 2537.05,1866.35 c 0,-33.52 8.02,-43.44 33.04,-43.44 25.02,0 33.28,9.92 33.28,43.44 0,33.51 -8.26,43.43 -33.28,43.43 -25.02,0 -33.04,-9.92 -33.04,-43.43 z m 87.1,0 c 0,-44.15 -14.4,-60.43 -54.06,-60.43 -39.42,0 -54.06,16.28 -54.06,60.43 0,43.9 14.64,60.43 54.06,60.43 39.66,0 54.06,-16.53 54.06,-60.43"
       style="fill:#a47a4e;fill-opacity:1;fill-rule:nonzero;stroke:none"
       transform="matrix(0.13333333,0,0,-0.13333333,0,641.33333)" />
    <path
       id="path20"
       d="m 2739.69,1902.93 c -13.44,3.78 -23.13,6.38 -35.16,6.38 -19.84,0 -27.62,-8.27 -27.62,-42.25 0,-34 7.78,-43.44 26.43,-43.44 12.75,0 20.78,4.72 36.35,15.81 z m 20.07,-93.95 h -15.58 l -1.89,16.53 c -12.28,-10.86 -27.85,-19.36 -45.56,-19.36 -29.03,0 -40.36,20.54 -40.36,60.67 0,44.85 13.93,59.96 43.43,59.96 14.17,0 28.1,-3.31 40.84,-10.63 -0.71,7.79 -0.95,14.64 -0.95,22.66 v 35.41 h 20.07 v -165.24"
       style="fill:#a47a4e;fill-opacity:1;fill-rule:nonzero;stroke:none"
       transform="matrix(0.13333333,0,0,-0.13333333,0,641.33333)" />
    <path
       id="path21"
       d="m 2898.82,1808.98 h -16.05 l -1.42,16.53 c -17.23,-12.99 -33.04,-19.59 -49.57,-19.59 -20.77,0 -31.39,10.85 -31.39,31.63 v 86.39 h 20.05 v -80.73 c -0.23,-14.63 4.97,-19.83 18.19,-19.83 12.27,0 23.37,5.67 40.12,16.53 v 84.03 h 20.07 v -114.96"
       style="fill:#a47a4e;fill-opacity:1;fill-rule:nonzero;stroke:none"
       transform="matrix(0.13333333,0,0,-0.13333333,0,641.33333)" />
    <path
       id="path22"
       d="m 3029.17,1812.05 c -11.57,-4.01 -25.96,-5.9 -39.42,-5.9 -39.66,0 -54.53,16.05 -54.53,60.43 0,44.38 14.87,60.2 54.77,60.2 10.15,0 25.73,-1.18 37.06,-5.43 l -2.6,-12.99 c -10.38,0.95 -23.14,1.42 -31.15,1.42 -27.39,0 -36.83,-9.68 -36.83,-43.2 0,-33.75 9.44,-43.43 36.83,-43.43 6.84,0 21.95,0.47 33.75,2.36 l 2.12,-13.46"
       style="fill:#a47a4e;fill-opacity:1;fill-rule:nonzero;stroke:none"
       transform="matrix(0.13333333,0,0,-0.13333333,0,641.33333)" />
    <path
       id="path23"
       d="m 3095.71,1840.62 c 0,-11.1 4.25,-15.35 15.58,-15.35 h 17.46 l 2.37,-15.34 c -7.55,-2.13 -20.3,-3.07 -25.97,-3.07 -19.35,0 -29.5,11.09 -29.5,31.16 v 70.1 h -20.77 v 14.64 l 20.77,0.95 v 34.22 h 20.06 v -33.99 h 36.59 v -15.82 h -36.59 v -67.5"
       style="fill:#a47a4e;fill-opacity:1;fill-rule:nonzero;stroke:none"
       transform="matrix(0.13333333,0,0,-0.13333333,0,641.33333)" />
    <path
       id="path24"
       d="m 3164.06,1808.98 v 114.96 h 19.83 v -114.96 z m 14.64,163.83 c 4.24,0 6.13,-2.37 6.13,-6.14 v -13.46 c 0,-4.25 -1.89,-6.13 -6.13,-6.13 h -9.45 c -4.01,0 -6.14,1.88 -6.14,6.13 v 13.46 c 0,3.77 2.13,6.14 6.14,6.14 h 9.45"
       style="fill:#a47a4e;fill-opacity:1;fill-rule:nonzero;stroke:none"
       transform="matrix(0.13333333,0,0,-0.13333333,0,641.33333)" />
    <path
       id="path25"
       d="m 3288.94,1813.94 c -1.18,-3.07 -3.78,-4.96 -7.08,-4.96 h -18.17 c -3.31,0 -5.9,1.89 -7.08,4.96 l -42.03,110 h 21.49 l 28.32,-80.49 c 2.36,-6.61 4.73,-13.69 6.85,-20.07 h 3.07 l 7.08,20.07 28.32,80.49 h 21.25 l -42.02,-110"
       style="fill:#a47a4e;fill-opacity:1;fill-rule:nonzero;stroke:none"
       transform="matrix(0.13333333,0,0,-0.13333333,0,641.33333)" />
    <path
       id="path26"
       d="m 3422.4,1872.25 c 10.39,0 12.51,8.49 12.51,16.99 -0.24,14.64 -7.8,20.54 -28.33,20.54 -24.08,0 -32.1,-8.5 -32.81,-37.53 z m -48.39,-15.58 c 2.12,-27.38 12.74,-33.52 36.35,-33.52 12.27,0 28.09,1.18 39.89,2.83 l 2.13,-13.46 c -10.86,-4.48 -31.4,-6.37 -44.62,-6.37 -39.66,0 -55,16.53 -55,60.67 0,45.08 15.82,59.96 52.88,59.96 34.7,0 49.34,-12.75 49.34,-37.54 0.23,-20.53 -8.27,-32.57 -27.39,-32.57 h -53.58"
       style="fill:#a47a4e;fill-opacity:1;fill-rule:nonzero;stroke:none"
       transform="matrix(0.13333333,0,0,-0.13333333,0,641.33333)" />
    <path
       id="path27"
       d="m 3640.31,1812.05 c -11.57,-4.01 -25.97,-5.9 -39.43,-5.9 -39.65,0 -54.53,16.05 -54.53,60.43 0,44.38 14.88,60.2 54.77,60.2 10.15,0 25.73,-1.18 37.06,-5.43 l -2.6,-12.99 c -10.38,0.95 -23.13,1.42 -31.15,1.42 -27.38,0 -36.83,-9.68 -36.83,-43.2 0,-33.75 9.45,-43.43 36.83,-43.43 6.84,0 21.95,0.47 33.75,2.36 l 2.13,-13.46"
       style="fill:#a47a4e;fill-opacity:1;fill-rule:nonzero;stroke:none"
       transform="matrix(0.13333333,0,0,-0.13333333,0,641.33333)" />
    <path
       id="path28"
       d="m 3692.08,1840.62 c -0.23,-10.16 5.43,-15.35 15.59,-15.35 h 11.09 l 2.36,-15.34 c -4.48,-2.13 -15.34,-3.07 -21.01,-3.07 -16.99,0 -28.08,10.39 -28.08,29.27 v 138.09 h 20.05 v -133.6"
       style="fill:#a47a4e;fill-opacity:1;fill-rule:nonzero;stroke:none"
       transform="matrix(0.13333333,0,0,-0.13333333,0,641.33333)" />
    <path
       id="path29"
       d="m 3847.09,1808.98 h -16.05 l -1.42,16.53 c -17.23,-12.99 -33.04,-19.59 -49.57,-19.59 -20.77,0 -31.39,10.85 -31.39,31.63 v 86.39 h 20.07 v -80.73 c -0.25,-14.63 4.95,-19.83 18.17,-19.83 12.27,0 23.37,5.67 40.13,16.53 v 84.03 h 20.06 v -114.96"
       style="fill:#a47a4e;fill-opacity:1;fill-rule:nonzero;stroke:none"
       transform="matrix(0.13333333,0,0,-0.13333333,0,641.33333)" />
    <path
       id="path30"
       d="m 3907.26,1863.04 c -18.65,4.48 -25.97,13.22 -25.97,32.1 0,26.68 13.45,32.11 44.85,31.64 15.11,-0.24 34.23,-1.42 48.39,-3.55 l -1.65,-14.63 c -14.4,0.47 -29.27,1.18 -43.68,1.18 -21.24,0.23 -28.32,-0.24 -28.32,-14.64 0,-12.03 5.67,-13.92 16.76,-16.52 l 33.52,-7.56 c 18.18,-4.48 26.68,-12.03 26.68,-31.63 0,-28.32 -15.82,-33.04 -49.1,-33.04 -8.27,0 -25.49,0.24 -45.09,3.3 l 1.41,14.64 c 11.34,-0.71 24.79,-1.18 39.66,-0.95 25.73,0 33.76,2.36 33.76,16.05 0,11.34 -7.08,13.46 -18.17,16.06 l -33.05,7.55"
       style="fill:#a47a4e;fill-opacity:1;fill-rule:nonzero;stroke:none"
       transform="matrix(0.13333333,0,0,-0.13333333,0,641.33333)" />
    <path
       id="path31"
       d="m 4045.18,1840.62 c 0,-11.1 4.25,-15.35 15.59,-15.35 h 17.46 l 2.36,-15.34 c -7.55,-2.13 -20.3,-3.07 -25.97,-3.07 -19.35,0 -29.5,11.09 -29.5,31.16 v 70.1 h -20.77 v 14.64 l 20.77,0.95 v 34.22 h 20.06 v -33.99 h 36.59 v -15.82 h -36.59 v -67.5"
       style="fill:#a47a4e;fill-opacity:1;fill-rule:nonzero;stroke:none"
       transform="matrix(0.13333333,0,0,-0.13333333,0,641.33333)" />
    <path
       id="path32"
       d="m 4176.54,1872.25 c 10.39,0 12.51,8.49 12.51,16.99 -0.24,14.64 -7.8,20.54 -28.33,20.54 -24.07,0 -32.1,-8.5 -32.8,-37.53 z m -48.39,-15.58 c 2.12,-27.38 12.74,-33.52 36.35,-33.52 12.27,0 28.09,1.18 39.89,2.83 l 2.13,-13.46 c -10.86,-4.48 -31.4,-6.37 -44.62,-6.37 -39.66,0 -55,16.53 -55,60.67 0,45.08 15.82,59.96 52.88,59.96 34.7,0 49.34,-12.75 49.34,-37.54 0.23,-20.53 -8.27,-32.57 -27.39,-32.57 h -53.58"
       style="fill:#a47a4e;fill-opacity:1;fill-rule:nonzero;stroke:none"
       transform="matrix(0.13333333,0,0,-0.13333333,0,641.33333)" />
    <path
       id="path33"
       d="m 4313.46,1907.89 h -6.61 c -12.74,0 -24.78,-5.43 -42.96,-14.63 v -84.28 h -20.07 v 114.96 h 15.59 l 2.12,-18.17 c 16.77,13.21 33.52,21.01 49.1,21.01 h 5.2 l -2.37,-18.89"
       style="fill:#a47a4e;fill-opacity:1;fill-rule:nonzero;stroke:none"
       transform="matrix(0.13333333,0,0,-0.13333333,0,641.33333)" />
  </g>
</svg>
